<mxfile host="app.diagrams.net" agent="Mozilla/5.0 (Windows NT 10.0; Win64; x64) AppleWebKit/537.36 (KHTML, like Gecko) Chrome/131.0.0.0 Safari/537.36" version="25.0.1">
  <diagram name="StrÃ¡nka-1" id="dNWbUrctn4j_aYPA4oRf">
    <mxGraphModel dx="7666" dy="-4119" grid="1" gridSize="10" guides="1" tooltips="1" connect="1" arrows="1" fold="1" page="1" pageScale="1" pageWidth="827" pageHeight="1169" math="0" shadow="0">
      <root>
        <mxCell id="0" />
        <mxCell id="1" parent="0" />
        <mxCell id="0o5XeDoi76JK4fizYGuf-1" value="&lt;b&gt;&lt;font style=&quot;font-size: 15px;&quot;&gt;Store branch&lt;/font&gt;&lt;/b&gt;" style="swimlane;fontStyle=0;childLayout=stackLayout;horizontal=1;startSize=26;fillColor=#f8cecc;horizontalStack=0;resizeParent=1;resizeParentMax=0;resizeLast=0;collapsible=1;marginBottom=0;whiteSpace=wrap;html=1;strokeColor=#b85450;" vertex="1" parent="1">
          <mxGeometry x="-5692.0001220703125" y="5702" width="120" height="160" as="geometry" />
        </mxCell>
        <mxCell id="0o5XeDoi76JK4fizYGuf-2" value="- name [0..*]&lt;br&gt;- has_warehouse" style="text;strokeColor=none;fillColor=none;align=left;verticalAlign=top;spacingLeft=4;spacingRight=4;overflow=hidden;rotatable=0;points=[[0,0.5],[1,0.5]];portConstraint=eastwest;whiteSpace=wrap;html=1;fontSize=14;" vertex="1" parent="0o5XeDoi76JK4fizYGuf-1">
          <mxGeometry y="26" width="120" height="134" as="geometry" />
        </mxCell>
        <mxCell id="0o5XeDoi76JK4fizYGuf-3" value="&lt;b&gt;&lt;font style=&quot;font-size: 15px;&quot;&gt;Address&lt;/font&gt;&lt;/b&gt;" style="swimlane;fontStyle=0;childLayout=stackLayout;horizontal=1;startSize=26;fillColor=none;horizontalStack=0;resizeParent=1;resizeParentMax=0;resizeLast=0;collapsible=1;marginBottom=0;whiteSpace=wrap;html=1;" vertex="1" parent="1">
          <mxGeometry x="-5372.0001220703125" y="5702" width="120" height="160" as="geometry" />
        </mxCell>
        <mxCell id="0o5XeDoi76JK4fizYGuf-4" value="- city" style="text;strokeColor=none;fillColor=none;align=left;verticalAlign=top;spacingLeft=4;spacingRight=4;overflow=hidden;rotatable=0;points=[[0,0.5],[1,0.5]];portConstraint=eastwest;whiteSpace=wrap;html=1;fontSize=14;" vertex="1" parent="0o5XeDoi76JK4fizYGuf-3">
          <mxGeometry y="26" width="120" height="26" as="geometry" />
        </mxCell>
        <mxCell id="0o5XeDoi76JK4fizYGuf-5" value="- street" style="text;strokeColor=none;fillColor=none;align=left;verticalAlign=top;spacingLeft=4;spacingRight=4;overflow=hidden;rotatable=0;points=[[0,0.5],[1,0.5]];portConstraint=eastwest;whiteSpace=wrap;html=1;fontSize=14;" vertex="1" parent="0o5XeDoi76JK4fizYGuf-3">
          <mxGeometry y="52" width="120" height="26" as="geometry" />
        </mxCell>
        <mxCell id="0o5XeDoi76JK4fizYGuf-6" value="- zip_code" style="text;strokeColor=none;fillColor=none;align=left;verticalAlign=top;spacingLeft=4;spacingRight=4;overflow=hidden;rotatable=0;points=[[0,0.5],[1,0.5]];portConstraint=eastwest;whiteSpace=wrap;html=1;fontSize=14;" vertex="1" parent="0o5XeDoi76JK4fizYGuf-3">
          <mxGeometry y="78" width="120" height="82" as="geometry" />
        </mxCell>
        <mxCell id="0o5XeDoi76JK4fizYGuf-7" value="located at" style="text;align=center;fontStyle=0;verticalAlign=middle;spacingLeft=3;spacingRight=3;strokeColor=none;rotatable=0;points=[[0,0.5],[1,0.5]];portConstraint=eastwest;html=1;fontSize=14;" vertex="1" parent="1">
          <mxGeometry x="-5512.0001220703125" y="5784" width="80" height="26" as="geometry" />
        </mxCell>
        <mxCell id="0o5XeDoi76JK4fizYGuf-8" value="0..1" style="text;strokeColor=none;fillColor=none;align=left;verticalAlign=top;spacingLeft=4;spacingRight=4;overflow=hidden;rotatable=0;points=[[0,0.5],[1,0.5]];portConstraint=eastwest;whiteSpace=wrap;html=1;" vertex="1" parent="1">
          <mxGeometry x="-5572.0001220703125" y="5776" width="40" height="26" as="geometry" />
        </mxCell>
        <mxCell id="0o5XeDoi76JK4fizYGuf-9" value="1..1" style="text;strokeColor=none;fillColor=none;align=left;verticalAlign=top;spacingLeft=4;spacingRight=4;overflow=hidden;rotatable=0;points=[[0,0.5],[1,0.5]];portConstraint=eastwest;whiteSpace=wrap;html=1;" vertex="1" parent="1">
          <mxGeometry x="-5412.0001220703125" y="5776" width="40" height="26" as="geometry" />
        </mxCell>
        <mxCell id="0o5XeDoi76JK4fizYGuf-10" value="&lt;b&gt;&lt;font style=&quot;font-size: 15px;&quot;&gt;Customer&lt;/font&gt;&lt;/b&gt;" style="swimlane;fontStyle=0;childLayout=stackLayout;horizontal=1;startSize=26;fillColor=none;horizontalStack=0;resizeParent=1;resizeParentMax=0;resizeLast=0;collapsible=1;marginBottom=0;whiteSpace=wrap;html=1;" vertex="1" parent="1">
          <mxGeometry x="-5692.0001220703125" y="6061" width="120" height="200" as="geometry" />
        </mxCell>
        <mxCell id="0o5XeDoi76JK4fizYGuf-11" value="-&amp;nbsp;given_name" style="text;strokeColor=none;fillColor=none;align=left;verticalAlign=top;spacingLeft=4;spacingRight=4;overflow=hidden;rotatable=0;points=[[0,0.5],[1,0.5]];portConstraint=eastwest;whiteSpace=wrap;html=1;fontSize=14;" vertex="1" parent="0o5XeDoi76JK4fizYGuf-10">
          <mxGeometry y="26" width="120" height="26" as="geometry" />
        </mxCell>
        <mxCell id="0o5XeDoi76JK4fizYGuf-12" value="-&amp;nbsp;family_name" style="text;strokeColor=none;fillColor=none;align=left;verticalAlign=top;spacingLeft=4;spacingRight=4;overflow=hidden;rotatable=0;points=[[0,0.5],[1,0.5]];portConstraint=eastwest;whiteSpace=wrap;html=1;fontSize=14;" vertex="1" parent="0o5XeDoi76JK4fizYGuf-10">
          <mxGeometry y="52" width="120" height="26" as="geometry" />
        </mxCell>
        <mxCell id="0o5XeDoi76JK4fizYGuf-13" value="- birth_date" style="text;strokeColor=none;fillColor=none;align=left;verticalAlign=top;spacingLeft=4;spacingRight=4;overflow=hidden;rotatable=0;points=[[0,0.5],[1,0.5]];portConstraint=eastwest;whiteSpace=wrap;html=1;fontSize=14;" vertex="1" parent="0o5XeDoi76JK4fizYGuf-10">
          <mxGeometry y="78" width="120" height="26" as="geometry" />
        </mxCell>
        <mxCell id="0o5XeDoi76JK4fizYGuf-14" value="-&amp;nbsp;phone_number" style="text;strokeColor=none;fillColor=none;align=left;verticalAlign=top;spacingLeft=4;spacingRight=4;overflow=hidden;rotatable=0;points=[[0,0.5],[1,0.5]];portConstraint=eastwest;whiteSpace=wrap;html=1;fontSize=14;" vertex="1" parent="0o5XeDoi76JK4fizYGuf-10">
          <mxGeometry y="104" width="120" height="96" as="geometry" />
        </mxCell>
        <mxCell id="0o5XeDoi76JK4fizYGuf-15" value="1..1" style="text;strokeColor=none;fillColor=none;align=left;verticalAlign=top;spacingLeft=4;spacingRight=4;overflow=hidden;rotatable=0;points=[[0,0.5],[1,0.5]];portConstraint=eastwest;whiteSpace=wrap;html=1;" vertex="1" parent="1">
          <mxGeometry x="-5632.0001220703125" y="5862" width="40" height="26" as="geometry" />
        </mxCell>
        <mxCell id="0o5XeDoi76JK4fizYGuf-16" value="0..n" style="text;strokeColor=none;fillColor=none;align=left;verticalAlign=top;spacingLeft=4;spacingRight=4;overflow=hidden;rotatable=0;points=[[0,0.5],[1,0.5]];portConstraint=eastwest;whiteSpace=wrap;html=1;" vertex="1" parent="1">
          <mxGeometry x="-5632.0001220703125" y="6035" width="40" height="26" as="geometry" />
        </mxCell>
        <mxCell id="0o5XeDoi76JK4fizYGuf-17" value="shops at" style="text;align=center;fontStyle=0;verticalAlign=middle;spacingLeft=3;spacingRight=3;strokeColor=none;rotatable=0;points=[[0,0.5],[1,0.5]];portConstraint=eastwest;html=1;fontSize=14;" vertex="1" parent="1">
          <mxGeometry x="-5652.0001220703125" y="5948" width="80" height="26" as="geometry" />
        </mxCell>
        <mxCell id="0o5XeDoi76JK4fizYGuf-18" value="&lt;b&gt;&lt;font style=&quot;font-size: 15px;&quot;&gt;Employee&lt;/font&gt;&lt;/b&gt;" style="swimlane;fontStyle=0;childLayout=stackLayout;horizontal=1;startSize=26;fillColor=none;horizontalStack=0;resizeParent=1;resizeParentMax=0;resizeLast=0;collapsible=1;marginBottom=0;whiteSpace=wrap;html=1;" vertex="1" parent="1">
          <mxGeometry x="-5972.0001220703125" y="5702" width="120" height="160" as="geometry" />
        </mxCell>
        <mxCell id="0o5XeDoi76JK4fizYGuf-19" value="- given_name" style="text;strokeColor=none;fillColor=none;align=left;verticalAlign=top;spacingLeft=4;spacingRight=4;overflow=hidden;rotatable=0;points=[[0,0.5],[1,0.5]];portConstraint=eastwest;whiteSpace=wrap;html=1;fontSize=14;" vertex="1" parent="0o5XeDoi76JK4fizYGuf-18">
          <mxGeometry y="26" width="120" height="26" as="geometry" />
        </mxCell>
        <mxCell id="0o5XeDoi76JK4fizYGuf-20" value="-&amp;nbsp;family_name" style="text;strokeColor=none;fillColor=none;align=left;verticalAlign=top;spacingLeft=4;spacingRight=4;overflow=hidden;rotatable=0;points=[[0,0.5],[1,0.5]];portConstraint=eastwest;whiteSpace=wrap;html=1;fontSize=14;" vertex="1" parent="0o5XeDoi76JK4fizYGuf-18">
          <mxGeometry y="52" width="120" height="108" as="geometry" />
        </mxCell>
        <mxCell id="0o5XeDoi76JK4fizYGuf-21" value="0..n" style="text;strokeColor=none;fillColor=none;align=left;verticalAlign=top;spacingLeft=4;spacingRight=4;overflow=hidden;rotatable=0;points=[[0,0.5],[1,0.5]];portConstraint=eastwest;whiteSpace=wrap;html=1;" vertex="1" parent="1">
          <mxGeometry x="-5852.0001220703125" y="5776" width="40" height="26" as="geometry" />
        </mxCell>
        <mxCell id="0o5XeDoi76JK4fizYGuf-22" value="1..1" style="text;strokeColor=none;fillColor=none;align=left;verticalAlign=top;spacingLeft=4;spacingRight=4;overflow=hidden;rotatable=0;points=[[0,0.5],[1,0.5]];portConstraint=eastwest;whiteSpace=wrap;html=1;" vertex="1" parent="1">
          <mxGeometry x="-5732.0001220703125" y="5776" width="40" height="26" as="geometry" />
        </mxCell>
        <mxCell id="0o5XeDoi76JK4fizYGuf-23" value="works at" style="text;align=center;fontStyle=0;verticalAlign=middle;spacingLeft=3;spacingRight=3;strokeColor=none;rotatable=0;points=[[0,0.5],[1,0.5]];portConstraint=eastwest;html=1;fontSize=14;" vertex="1" parent="1">
          <mxGeometry x="-5822.0001220703125" y="5784" width="80" height="26" as="geometry" />
        </mxCell>
        <mxCell id="0o5XeDoi76JK4fizYGuf-24" value="&lt;b&gt;&lt;font style=&quot;font-size: 15px;&quot;&gt;Cash Register&lt;/font&gt;&lt;/b&gt;" style="swimlane;fontStyle=0;childLayout=stackLayout;horizontal=1;startSize=26;horizontalStack=0;resizeParent=1;resizeParentMax=0;resizeLast=0;collapsible=1;marginBottom=0;whiteSpace=wrap;html=1;" vertex="1" parent="1">
          <mxGeometry x="-5692.0001220703125" y="5402" width="140" height="146" as="geometry" />
        </mxCell>
        <mxCell id="0o5XeDoi76JK4fizYGuf-25" value="-&amp;nbsp;number" style="text;strokeColor=none;fillColor=none;align=left;verticalAlign=top;spacingLeft=4;spacingRight=4;overflow=hidden;rotatable=0;points=[[0,0.5],[1,0.5]];portConstraint=eastwest;whiteSpace=wrap;html=1;fontSize=14;" vertex="1" parent="0o5XeDoi76JK4fizYGuf-24">
          <mxGeometry y="26" width="140" height="26" as="geometry" />
        </mxCell>
        <mxCell id="0o5XeDoi76JK4fizYGuf-26" value="- is_self_checkout" style="text;strokeColor=none;fillColor=none;align=left;verticalAlign=top;spacingLeft=4;spacingRight=4;overflow=hidden;rotatable=0;points=[[0,0.5],[1,0.5]];portConstraint=eastwest;whiteSpace=wrap;html=1;fontSize=14;" vertex="1" parent="0o5XeDoi76JK4fizYGuf-24">
          <mxGeometry y="52" width="140" height="26" as="geometry" />
        </mxCell>
        <mxCell id="0o5XeDoi76JK4fizYGuf-27" value="&lt;div&gt;&lt;br&gt;&lt;/div&gt;&lt;div&gt;&lt;br&gt;&lt;/div&gt;" style="text;strokeColor=none;fillColor=none;align=left;verticalAlign=top;spacingLeft=4;spacingRight=4;overflow=hidden;rotatable=0;points=[[0,0.5],[1,0.5]];portConstraint=eastwest;whiteSpace=wrap;html=1;" vertex="1" parent="0o5XeDoi76JK4fizYGuf-24">
          <mxGeometry y="78" width="140" height="68" as="geometry" />
        </mxCell>
        <mxCell id="0o5XeDoi76JK4fizYGuf-28" value="1..n" style="text;strokeColor=none;fillColor=none;align=left;verticalAlign=top;spacingLeft=4;spacingRight=4;overflow=hidden;rotatable=0;points=[[0,0.5],[1,0.5]];portConstraint=eastwest;whiteSpace=wrap;html=1;" vertex="1" parent="1">
          <mxGeometry x="-5632.0001220703125" y="5522" width="40" height="26" as="geometry" />
        </mxCell>
        <mxCell id="0o5XeDoi76JK4fizYGuf-29" value="1..1" style="text;strokeColor=none;fillColor=none;align=left;verticalAlign=top;spacingLeft=4;spacingRight=4;overflow=hidden;rotatable=0;points=[[0,0.5],[1,0.5]];portConstraint=eastwest;whiteSpace=wrap;html=1;" vertex="1" parent="1">
          <mxGeometry x="-5632.0001220703125" y="5672" width="40" height="30" as="geometry" />
        </mxCell>
        <mxCell id="0o5XeDoi76JK4fizYGuf-30" value="&lt;font style=&quot;font-size: 14px;&quot;&gt;located at&lt;/font&gt;" style="text;align=center;fontStyle=0;verticalAlign=middle;spacingLeft=3;spacingRight=3;strokeColor=none;rotatable=0;points=[[0,0.5],[1,0.5]];portConstraint=eastwest;html=1;" vertex="1" parent="1">
          <mxGeometry x="-5712.0001220703125" y="5602" width="80" height="26" as="geometry" />
        </mxCell>
        <mxCell id="0o5XeDoi76JK4fizYGuf-31" value="1..1" style="text;strokeColor=none;fillColor=none;align=left;verticalAlign=top;spacingLeft=4;spacingRight=4;overflow=hidden;rotatable=0;points=[[0,0.5],[1,0.5]];portConstraint=eastwest;whiteSpace=wrap;html=1;" vertex="1" parent="1">
          <mxGeometry x="-5932.0001220703125" y="5672" width="40" height="26" as="geometry" />
        </mxCell>
        <mxCell id="0o5XeDoi76JK4fizYGuf-32" value="0..n" style="text;strokeColor=none;fillColor=none;align=left;verticalAlign=top;spacingLeft=4;spacingRight=4;overflow=hidden;rotatable=0;points=[[0,0.5],[1,0.5]];portConstraint=eastwest;whiteSpace=wrap;html=1;" vertex="1" parent="1">
          <mxGeometry x="-5732.0001220703125" y="5482" width="40" height="26" as="geometry" />
        </mxCell>
        <mxCell id="0o5XeDoi76JK4fizYGuf-33" value="" style="endArrow=classic;html=1;rounded=0;entryX=0;entryY=0.5;entryDx=0;entryDy=0;" edge="1" parent="1" source="0o5XeDoi76JK4fizYGuf-1" target="0o5XeDoi76JK4fizYGuf-28">
          <mxGeometry width="50" height="50" relative="1" as="geometry">
            <mxPoint x="-5360.0001220703125" y="5675" as="sourcePoint" />
            <mxPoint x="-5530" y="5603" as="targetPoint" />
          </mxGeometry>
        </mxCell>
        <mxCell id="0o5XeDoi76JK4fizYGuf-34" value="" style="endArrow=classic;html=1;rounded=0;exitX=1.02;exitY=0.339;exitDx=0;exitDy=0;exitPerimeter=0;entryX=-0.002;entryY=0.818;entryDx=0;entryDy=0;entryPerimeter=0;dashed=1;dashPattern=8 8;" edge="1" parent="1" source="0o5XeDoi76JK4fizYGuf-2" target="0o5XeDoi76JK4fizYGuf-5">
          <mxGeometry width="50" height="50" relative="1" as="geometry">
            <mxPoint x="-5360.0001220703125" y="5735" as="sourcePoint" />
            <mxPoint x="-5310.0001220703125" y="5685" as="targetPoint" />
          </mxGeometry>
        </mxCell>
        <mxCell id="0o5XeDoi76JK4fizYGuf-35" value="" style="endArrow=classic;html=1;rounded=0;exitX=0.896;exitY=-0.104;exitDx=0;exitDy=0;exitPerimeter=0;entryX=1.013;entryY=0.115;entryDx=0;entryDy=0;entryPerimeter=0;" edge="1" parent="1" source="0o5XeDoi76JK4fizYGuf-22" target="0o5XeDoi76JK4fizYGuf-20">
          <mxGeometry width="50" height="50" relative="1" as="geometry">
            <mxPoint x="-5694.520122070313" y="5772.258" as="sourcePoint" />
            <mxPoint x="-5944" y="5949" as="targetPoint" />
          </mxGeometry>
        </mxCell>
        <mxCell id="0o5XeDoi76JK4fizYGuf-36" value="" style="endArrow=classic;html=1;rounded=0;strokeColor=#000000;entryX=0.25;entryY=0;entryDx=0;entryDy=0;exitX=0.327;exitY=0.986;exitDx=0;exitDy=0;exitPerimeter=0;" edge="1" parent="1" source="0o5XeDoi76JK4fizYGuf-2" target="0o5XeDoi76JK4fizYGuf-10">
          <mxGeometry width="50" height="50" relative="1" as="geometry">
            <mxPoint x="-5662" y="5859" as="sourcePoint" />
            <mxPoint x="-5620" y="5932" as="targetPoint" />
          </mxGeometry>
        </mxCell>
        <mxCell id="0o5XeDoi76JK4fizYGuf-37" value="" style="endArrow=classic;html=1;rounded=0;exitX=-0.005;exitY=0.06;exitDx=0;exitDy=0;exitPerimeter=0;strokeColor=#000000;dashed=1;dashPattern=12 12;" edge="1" parent="1" source="0o5XeDoi76JK4fizYGuf-26">
          <mxGeometry width="50" height="50" relative="1" as="geometry">
            <mxPoint x="-5945" y="5702" as="sourcePoint" />
            <mxPoint x="-5952" y="5694" as="targetPoint" />
            <Array as="points">
              <mxPoint x="-5945.0001220703125" y="5458" />
            </Array>
          </mxGeometry>
        </mxCell>
        <mxCell id="0o5XeDoi76JK4fizYGuf-38" value="operated_by&lt;div&gt;&lt;br&gt;&lt;/div&gt;" style="text;html=1;align=center;verticalAlign=middle;resizable=0;points=[];autosize=1;strokeColor=none;fillColor=none;fontSize=16;" vertex="1" parent="1">
          <mxGeometry x="-5939" y="5426" width="107" height="50" as="geometry" />
        </mxCell>
        <mxCell id="0o5XeDoi76JK4fizYGuf-39" value="nepÅimÃ¡ relace" style="text;html=1;align=center;verticalAlign=middle;resizable=0;points=[];autosize=1;strokeColor=none;fillColor=none;" vertex="1" parent="1">
          <mxGeometry x="-5512" y="5746" width="100" height="30" as="geometry" />
        </mxCell>
      </root>
    </mxGraphModel>
  </diagram>
</mxfile>
